# xmcd
#
# Track frame offsets: 
#        150
#        14739
#        31205
#        44649
#        58141
#        73449
#        89429
#        104077
#        118882
#        133248
#        146743
#        161604
#        176851
#        190704
#        205899
#
# Disc length: 2951 seconds
#
# Revision: 6
# Processed by: cddbd v1.5.2PL0 Copyright (c) Steve Scherf et al.
# Submitted via: ExactAudioCopy v1.0b3
#
DISCID=f60b850f
DTITLE=Jason Aldean - They Don't Know
DYEAR=2016
DGENRE=Country
TTITLE0=Lights Come On
TTITLE1=A Little More Summertime
TTITLE2=This Plane Don't Go There
TTITLE3=Comin' in Hot
TTITLE4=First Time Again (with Kelsea Ballerini)
TTITLE5=Bad
TTITLE6=They Don't Know
TTITLE7=One We Won't Forget
TTITLE8=Whiskey'd Up
TTITLE9=In Case You Don't Remember
TTITLE10=All Out of Beer
TTITLE11=Any Ol' Barstool
TTITLE12=The Way a Night Should Feel
TTITLE13=Reason to Love L.A.
TTITLE14=When the Lights Go Out
EXTD=
EXTT0=
EXTT1=
EXTT2=
EXTT3=
EXTT4=
EXTT5=
EXTT6=
EXTT7=
EXTT8=
EXTT9=
EXTT10=
EXTT11=
EXTT12=
EXTT13=
EXTT14=
PLAYORDER=
